name C:\Users\u0101727\Documents\MyRepositories\upper-imu-dc\Results\main_tracking\Case_21\kinematics.mot
datacolumns 10
datarows 42
range 2.07000000 2.48000000
endheader 
time	clav_prot	clav_elev	scapula_abduction	scapula_elevation	scapula_upward_rot	scapula_winging	plane_elv	shoulder_elv	axial_rot	
          2.07000000	        -30.74212253	         12.26283365	         -0.53993050	          0.46257154	         55.08011006	         -7.75680784	         64.09863432	         77.53834062	        -18.38992218	
          2.08000000	        -30.90502322	         12.33667254	         -0.64180385	          0.48908684	         55.32701733	         -7.82985577	         63.92917674	         77.91005392	        -17.96924925	
          2.09000000	        -31.06391438	         12.40217531	         -0.73597983	          0.51065078	         55.57072322	         -7.90090528	         63.76175897	         78.27705317	        -17.56355988	
          2.10000000	        -31.21805312	         12.45821865	         -0.82081573	          0.52655769	         55.81111351	         -7.96956613	         63.59404924	         78.64033552	        -17.19326435	
          2.11000000	        -31.36716413	         12.50377079	         -0.89527866	          0.53611657	         56.04837446	         -8.03560478	         63.42451903	         79.00065889	        -16.87437044	
          2.12000000	        -31.51141120	         12.53787992	         -0.95891697	          0.53864767	         56.28296223	         -8.09893911	         63.25214519	         79.35861875	        -16.62172022	
          2.13000000	        -31.65136555	         12.55985948	         -1.01188460	          0.53361313	         56.51559141	         -8.15965189	         63.07631635	         79.71462721	        -16.44880167	
          2.14000000	        -31.78800409	         12.56966602	         -1.05509124	          0.52087628	         56.74722332	         -8.21803337	         62.89708593	         80.06878085	        -16.36300500	
          2.15000000	        -31.92267710	         12.56828990	         -1.09035909	          0.50097422	         56.97898732	         -8.27461457	         62.71556651	         80.42073015	        -16.35860518	
          2.16000000	        -32.05698273	         12.55796933	         -1.12041729	          0.47527907	         57.21201706	         -8.33015224	         62.53413176	         80.76967255	        -16.41136826	
          2.17000000	        -32.19254606	         12.54211536	         -1.14864007	          0.44596950	         57.44725730	         -8.38555384	         62.35617745	         81.11451264	        -16.47827274	
          2.18000000	        -32.33075013	         12.52490932	         -1.17853461	          0.41577987	         57.68531886	         -8.44175184	         62.18537416	         81.45414439	        -16.50400048	
          2.19000000	        -32.47249183	         12.51063565	         -1.21309298	          0.38756360	         57.92643250	         -8.49955242	         62.02458650	         81.78774985	        -16.43288062	
          2.20000000	        -32.61804842	         12.50294893	         -1.25422871	          0.36380014	         58.17051267	         -8.55950427	         61.87486907	         82.11500145	        -16.22199601	
          2.21000000	        -32.76710953	         12.50431047	         -1.30251149	          0.34620373	         58.41729684	         -8.62183255	         61.73497029	         82.43611811	        -15.85049351	
          2.22000000	        -32.91894923	         12.51571152	         -1.35725256	          0.33551795	         58.66649281	         -8.68644871	         61.60150285	         82.75181536	        -15.32254512	
          2.23000000	        -33.07265615	         12.53667207	         -1.41683104	          0.33149607	         58.91788165	         -8.75301455	         61.46961205	         83.06321690	        -14.66464433	
          2.24000000	        -33.22734705	         12.56546974	         -1.47911310	          0.33304123	         59.17137284	         -8.82103522	         61.33382957	         83.37175484	        -13.91963277	
          2.25000000	        -33.38231980	         12.59955016	         -1.54185038	          0.33847550	         59.42703200	         -8.88996149	         61.18883629	         83.67904935	        -13.13980122	
          2.26000000	        -33.53712105	         12.63604026	         -1.60298256	          0.34588559	         59.68508671	         -8.95927983	         61.02997275	         83.98676297	        -12.38054180	
          2.27000000	        -33.69152043	         12.67224726	         -1.66080323	          0.35346597	         59.94589338	         -9.02856783	         60.85346053	         84.29644684	        -11.69516984	
          2.28000000	        -33.84540945	         12.70602734	         -1.71399116	          0.35977916	         60.20985187	         -9.09750341	         60.65639791	         84.60940356	        -11.13100950	
          2.29000000	        -33.99866696	         12.73596122	         -1.76155020	          0.36388685	         60.47727650	         -9.16583507	         60.43664331	         84.92658084	        -10.72659632	
          2.30000000	        -34.15103564	         12.76134375	         -1.80271690	          0.36535277	         60.74824770	         -9.23333169	         60.19269739	         85.24850048	        -10.50972847	
          2.31000000	        -34.30204503	         12.78204650	         -1.83689924	          0.36415423	         61.02246789	         -9.29973480	         59.92367587	         85.57522471	        -10.49596587	
          2.32000000	        -34.45101042	         12.79833074	         -1.86371228	          0.36055241	         61.29913745	         -9.36473620	         59.62944936	         85.90636139	        -10.68712750	
          2.33000000	        -34.59713279	         12.81067835	         -1.88316579	          0.35496518	         61.57686667	         -9.42800108	         59.31099334	         86.24110659	        -11.06956061	
          2.34000000	        -34.73970979	         12.81968844	         -1.89601586	          0.34787427	         61.85364972	         -9.48924907	         58.97091407	         86.57831604	        -11.61248325	
          2.35000000	        -34.87842966	         12.82606022	         -1.90420780	          0.33978341	         62.12693574	         -9.54838583	         58.61399422	         86.91658924	        -12.26735008	
          2.36000000	        -35.01366076	         12.83063797	         -1.91122586	          0.33121994	         62.39382338	         -9.60564559	         58.24747662	         87.25434712	        -12.96963684	
          2.37000000	        -35.14660039	         12.83443880	         -1.92208722	          0.32273891	         62.65137339	         -9.66167386	         57.88075909	         87.58988837	        -13.64432985	
          2.38000000	        -35.27915423	         12.83855807	         -1.94276229	          0.31487085	         62.89698991	         -9.71747632	         57.52430092	         87.92142131	        -14.21545827	
          2.39000000	        -35.41351433	         12.84390550	         -1.97902367	          0.30798435	         63.12878535	         -9.77420697	         57.18787025	         88.24708130	        -14.61812890	
          2.40000000	        -35.55158539	         12.85088746	         -2.03509645	          0.30212797	         63.34585167	         -9.83286962	         56.87868479	         88.56494724	        -14.80952652	
          2.41000000	        -35.69450565	         12.85923266	         -2.11266494	          0.29696215	         63.54837567	         -9.89406559	         56.60014798	         88.87309428	        -14.77510150	
          2.42000000	        -35.84243649	         12.86805911	         -2.21058094	          0.29183013	         63.73758932	         -9.95788212	         56.35157267	         89.16970421	        -14.52837658	
          2.43000000	        -35.99464653	         12.87613997	         -2.32526520	          0.28593564	         63.91559710	        -10.02393678	         56.12881769	         89.45321351	        -14.10553618	
          2.44000000	        -36.14981449	         12.88226973	         -2.45157652	          0.27856659	         64.08514378	        -10.09153976	         55.92548837	         89.72244340	        -13.55721711	
          2.45000000	        -36.30643025	         12.88562321	         -2.58386027	          0.26930262	         64.24936627	        -10.15991226	         55.73430719	         89.97666660	        -12.93978294	
          2.46000000	        -36.46316494	         12.88599452	         -2.71689776	          0.25814223	         64.41154240	        -10.22838958	         55.54833332	         90.21560875	        -12.30771100	
          2.47000000	        -36.61911016	         12.88382676	         -2.84655186	          0.24549807	         64.57483491	        -10.29654875	         55.36183791	         90.43941711	        -11.70795643	
          2.48000000	        -36.77385308	         12.88001395	         -2.97004014	          0.23205193	         64.74203735	        -10.36423592	         55.17079062	         90.64863037	        -11.17644851	
